<svg width="1400" height="860" viewBox="0 0 1400 860" fill="none" xmlns="http://www.w3.org/2000/svg">
  <defs>
    <filter id="glass" x="-10%" y="-10%" width="120%" height="120%">
      <feGaussianBlur stdDeviation="12" result="blur" />
      <feColorMatrix type="matrix" values="1 0 0 0 0  0 1 0 0 0  0 0 1 0 0  0 0 0 18 -7" result="glow" />
      <feBlend in="SourceGraphic" in2="glow" />
    </filter>
    <linearGradient id="primary-gradient" x1="0%" y1="0%" x2="100%" y2="100%">
      <stop offset="0%" stop-color="#0284c7" />
      <stop offset="100%" stop-color="#0369a1" />
    </linearGradient>
    <linearGradient id="card-gradient" x1="0%" y1="0%" x2="100%" y2="100%">
      <stop offset="0%" stop-color="#ffffff" stop-opacity="0.9" />
      <stop offset="100%" stop-color="#f8fafc" stop-opacity="0.8" />
    </linearGradient>
  </defs>

  <rect width="1400" height="860" fill="#0f172a"/>
  
  <!-- Abstract background model with center shifted down to Y=510 -->
  <circle cx="700" cy="510" r="300" fill="#1e293b" opacity="0.5"/>
  <circle cx="700" cy="510" r="450" fill="none" stroke="#334155" stroke-width="1" stroke-dasharray="4 8"/>
  <circle cx="700" cy="510" r="200" fill="none" stroke="#334155" stroke-width="1" stroke-dasharray="4 8"/>

  <text x="80" y="90" font-family="Inter, Arial, sans-serif" font-size="42" font-weight="800" fill="#ffffff" letter-spacing="-0.02em">Five dimensions of productive GraphRAG systems</text>
  <text x="80" y="132" font-family="Inter, Arial, sans-serif" font-size="24" font-weight="500" fill="#94a3b8">Why a vector store and Neo4j alone are not yet a product.</text>

  <!-- Central Node -->
  <g transform="translate(620, 430)">
    <rect width="160" height="160" rx="32" fill="url(#primary-gradient)" filter="url(#glass)"/>
    <text x="80" y="75" font-family="Inter, Arial, sans-serif" font-size="24" font-weight="700" fill="#ffffff" text-anchor="middle">Quality</text>
    <text x="80" y="105" font-family="Inter, Arial, sans-serif" font-size="24" font-weight="700" fill="#ffffff" text-anchor="middle">Gates</text>
  </g>

  <!-- Node 1: Terminology -->
  <g transform="translate(700, 510) rotate(-72) translate(0, -280) rotate(72) translate(-140, -40)">
    <rect width="280" height="80" rx="16" fill="url(#card-gradient)" stroke="#e2e8f0" stroke-width="2" filter="url(#glass)"/>
    <rect x="20" y="20" width="40" height="40" rx="8" fill="#e0f2fe" />
    <text x="40" y="46" font-family="Inter, Arial, sans-serif" font-size="18" font-weight="700" fill="#0284c7" text-anchor="middle">1</text>
    <text x="80" y="38" font-family="Inter, Arial, sans-serif" font-size="18" font-weight="700" fill="#0f172a">Concept clarity</text>
    <text x="80" y="60" font-family="Inter, Arial, sans-serif" font-size="12" font-weight="500" fill="#64748b">Clear semantics over sprawl</text>
  </g>

  <!-- Node 2: Relationships -->
  <g transform="translate(700, 510) rotate(0) translate(0, -280) rotate(0) translate(-140, -40)">
    <rect width="280" height="80" rx="16" fill="url(#card-gradient)" stroke="#e2e8f0" stroke-width="2" filter="url(#glass)"/>
    <rect x="20" y="20" width="40" height="40" rx="8" fill="#e0f2fe" />
    <text x="40" y="46" font-family="Inter, Arial, sans-serif" font-size="18" font-weight="700" fill="#0284c7" text-anchor="middle">2</text>
    <text x="80" y="38" font-family="Inter, Arial, sans-serif" font-size="18" font-weight="700" fill="#0f172a">Relationship discipline</text>
    <text x="80" y="60" font-family="Inter, Arial, sans-serif" font-size="12" font-weight="500" fill="#64748b">Typed, consistent edges</text>
  </g>

  <!-- Node 3: Evidence -->
  <g transform="translate(700, 510) rotate(72) translate(0, -280) rotate(-72) translate(-140, -40)">
    <rect width="280" height="80" rx="16" fill="url(#card-gradient)" stroke="#e2e8f0" stroke-width="2" filter="url(#glass)"/>
    <rect x="20" y="20" width="40" height="40" rx="8" fill="#e0f2fe" />
    <text x="40" y="46" font-family="Inter, Arial, sans-serif" font-size="18" font-weight="700" fill="#0284c7" text-anchor="middle">3</text>
    <text x="80" y="38" font-family="Inter, Arial, sans-serif" font-size="18" font-weight="700" fill="#0f172a">Evidence paths</text>
    <text x="80" y="60" font-family="Inter, Arial, sans-serif" font-size="12" font-weight="500" fill="#64748b">Traceability back to source</text>
  </g>

  <!-- Node 4: Context Rule -->
  <g transform="translate(700, 510) rotate(144) translate(0, -280) rotate(-144) translate(-140, -40)">
    <rect width="280" height="80" rx="16" fill="url(#card-gradient)" stroke="#e2e8f0" stroke-width="2" filter="url(#glass)"/>
    <rect x="20" y="20" width="40" height="40" rx="8" fill="#e0f2fe" />
    <text x="40" y="46" font-family="Inter, Arial, sans-serif" font-size="18" font-weight="700" fill="#0284c7" text-anchor="middle">4</text>
    <text x="80" y="38" font-family="Inter, Arial, sans-serif" font-size="18" font-weight="700" fill="#0f172a">Context control</text>
    <text x="80" y="60" font-family="Inter, Arial, sans-serif" font-size="12" font-weight="500" fill="#64748b">Prioritization over volume</text>
  </g>

  <!-- Node 5: Stability -->
  <g transform="translate(700, 510) rotate(-144) translate(0, -280) rotate(144) translate(-140, -40)">
    <rect width="280" height="80" rx="16" fill="url(#card-gradient)" stroke="#e2e8f0" stroke-width="2" filter="url(#glass)"/>
    <rect x="20" y="20" width="40" height="40" rx="8" fill="#e0f2fe" />
    <text x="40" y="46" font-family="Inter, Arial, sans-serif" font-size="18" font-weight="700" fill="#0284c7" text-anchor="middle">5</text>
    <text x="80" y="38" font-family="Inter, Arial, sans-serif" font-size="18" font-weight="700" fill="#0f172a">Runtime stability</text>
    <text x="80" y="60" font-family="Inter, Arial, sans-serif" font-size="12" font-weight="500" fill="#64748b">Integrity and guardrails</text>
  </g>

  <!-- Connecting Lines -->
  <line x1="700" y1="430" x2="700" y2="270" stroke="#38bdf8" stroke-width="3" stroke-dasharray="4 4" opacity="0.6"/>
  <line x1="620" y1="484" x2="557" y2="464" stroke="#38bdf8" stroke-width="3" stroke-dasharray="4 4" opacity="0.6"/>
  <line x1="780" y1="484" x2="843" y2="464" stroke="#38bdf8" stroke-width="3" stroke-dasharray="4 4" opacity="0.6"/>
  <line x1="642" y1="590" x2="565" y2="697" stroke="#38bdf8" stroke-width="3" stroke-dasharray="4 4" opacity="0.6"/>
  <line x1="758" y1="590" x2="836" y2="697" stroke="#38bdf8" stroke-width="3" stroke-dasharray="4 4" opacity="0.6"/>
</svg>
