<svg width="1400" height="860" viewBox="0 0 1400 860" fill="none" xmlns="http://www.w3.org/2000/svg">
  <defs>
    <filter id="glass" x="-10%" y="-10%" width="120%" height="120%">
      <feGaussianBlur stdDeviation="12" result="blur" />
      <feColorMatrix type="matrix" values="1 0 0 0 0  0 1 0 0 0  0 0 1 0 0  0 0 0 18 -7" result="glow" />
      <feBlend in="SourceGraphic" in2="glow" />
    </filter>
    <linearGradient id="sky-gradient" x1="0%" y1="0%" x2="100%" y2="100%">
      <stop offset="0%" stop-color="#0284c7" />
      <stop offset="100%" stop-color="#0369a1" />
    </linearGradient>
    <linearGradient id="panel-gradient" x1="0%" y1="0%" x2="100%" y2="100%">
      <stop offset="0%" stop-color="#ffffff" stop-opacity="0.9" />
      <stop offset="100%" stop-color="#f8fafc" stop-opacity="0.8" />
    </linearGradient>
    <marker id="arrow" viewBox="0 0 10 10" refX="9" refY="5" markerWidth="6" markerHeight="6" orient="auto">
      <path d="M 0 0 L 10 5 L 0 10 z" fill="#0ea5e9" />
    </marker>
    <marker id="arrow-red" viewBox="0 0 10 10" refX="9" refY="5" markerWidth="6" markerHeight="6" orient="auto">
      <path d="M 0 0 L 10 5 L 0 10 z" fill="#ef4444" />
    </marker>
  </defs>

  <rect width="1400" height="860" fill="#f8fafc"/>

  <text x="80" y="90" font-family="Inter, Arial, sans-serif" font-size="42" font-weight="800" fill="#0f172a" letter-spacing="-0.02em">Reduktion von Kontext zu stabiler Antwort</text>
  <text x="80" y="132" font-family="Inter, Arial, sans-serif" font-size="24" font-weight="500" fill="#475569">Weniger Kontext priorisiert Relevanz und erhöht die Entscheidungsreife.</text>

  <!-- Left Side: Overloaded Context -->
  <g transform="translate(100, 220)">
    <rect width="460" height="520" rx="24" fill="#ffffff" stroke="#e2e8f0" stroke-width="2" filter="url(#glass)"/>
    <text x="230" y="60" font-family="Inter, Arial, sans-serif" font-size="22" font-weight="700" fill="#0f172a" text-anchor="middle">Überladener Kontext</text>
    <text x="230" y="90" font-family="Inter, Arial, sans-serif" font-size="14" font-weight="500" fill="#ef4444" text-anchor="middle">Viel Information, wenig Fokus</text>

    <!-- Document representations -->
    <rect x="60" y="140" width="140" height="80" rx="8" fill="#f1f5f9" stroke="#cbd5e1" stroke-dasharray="4 4"/>
    <rect x="260" y="140" width="140" height="80" rx="8" fill="#f1f5f9" stroke="#cbd5e1" stroke-dasharray="4 4"/>
    <rect x="60" y="240" width="140" height="80" rx="8" fill="#f1f5f9" stroke="#cbd5e1" stroke-dasharray="4 4"/>
    <rect x="260" y="240" width="140" height="80" rx="8" fill="#f1f5f9" stroke="#cbd5e1" stroke-dasharray="4 4"/>
    <rect x="160" y="340" width="140" height="80" rx="8" fill="#f1f5f9" stroke="#cbd5e1" stroke-dasharray="4 4"/>

    <!-- Content indicators -->
    <line x1="80" y1="160" x2="180" y2="160" stroke="#94a3b8" stroke-width="4" stroke-linecap="round"/>
    <line x1="80" y1="180" x2="160" y2="180" stroke="#94a3b8" stroke-width="4" stroke-linecap="round"/>
    <line x1="80" y1="200" x2="140" y2="200" stroke="#94a3b8" stroke-width="4" stroke-linecap="round"/>

    <line x1="280" y1="160" x2="380" y2="160" stroke="#94a3b8" stroke-width="4" stroke-linecap="round"/>
    <line x1="280" y1="180" x2="360" y2="180" stroke="#94a3b8" stroke-width="4" stroke-linecap="round"/>

    <!-- Messy connections to model -->
    <path d="M 130 220 L 230 450" fill="none" stroke="#ef4444" stroke-width="2" opacity="0.5"/>
    <path d="M 330 220 L 230 450" fill="none" stroke="#ef4444" stroke-width="2" opacity="0.5"/>
    <path d="M 130 320 L 230 450" fill="none" stroke="#ef4444" stroke-width="2" opacity="0.5"/>
    <path d="M 330 320 L 230 450" fill="none" stroke="#ef4444" stroke-width="2" opacity="0.5"/>
    <path d="M 230 420 L 230 450" fill="none" stroke="#ef4444" stroke-width="2" opacity="0.5"/>

    <rect x="150" y="450" width="160" height="50" rx="12" fill="#fef2f2" stroke="#ef4444" stroke-width="2"/>
    <text x="230" y="480" font-family="Inter, Arial, sans-serif" font-size="14" font-weight="600" fill="#dc2626" text-anchor="middle">Diffuse Antwort</text>
  </g>

  <!-- Filter Funnel Graphic -->
  <g transform="translate(620, 360)">
    <path d="M 0 0 L 160 0 L 110 80 L 50 80 Z" fill="#e0f2fe" stroke="#38bdf8" stroke-width="2"/>
    <text x="80" y="45" font-family="Inter, Arial, sans-serif" font-size="14" font-weight="700" fill="#0284c7" text-anchor="middle">Disziplin-Filter</text>
    <line x1="80" y1="90" x2="80" y2="140" stroke="#0ea5e9" stroke-width="4" marker-end="url(#arrow)"/>
  </g>

  <!-- Right Side: Disciplined Context -->
  <g transform="translate(840, 220)">
    <rect width="460" height="520" rx="24" fill="url(#panel-gradient)" filter="url(#glass)"/>
    <text x="230" y="60" font-family="Inter, Arial, sans-serif" font-size="22" font-weight="700" fill="#0f172a" text-anchor="middle">Disziplinierter Kontext</text>
    <text x="230" y="90" font-family="Inter, Arial, sans-serif" font-size="14" font-weight="500" fill="#0284c7" text-anchor="middle">Spezifische Begriffe und tragende Belege</text>

    <!-- Central concepts -->
    <rect x="80" y="160" width="120" height="50" rx="12" fill="#e0f2fe" stroke="#38bdf8" stroke-width="2"/>
    <text x="140" y="190" font-family="Inter, Arial, sans-serif" font-size="14" font-weight="600" fill="#0284c7" text-anchor="middle">Konzept A</text>

    <rect x="260" y="160" width="120" height="50" rx="12" fill="#e0f2fe" stroke="#38bdf8" stroke-width="2"/>
    <text x="320" y="190" font-family="Inter, Arial, sans-serif" font-size="14" font-weight="600" fill="#0284c7" text-anchor="middle">Konzept B</text>

    <!-- Relevant connection -->
    <line x1="200" y1="185" x2="260" y2="185" stroke="#0ea5e9" stroke-width="3" marker-end="url(#arrow)"/>
    <text x="230" y="175" font-family="Inter, Arial, sans-serif" font-size="12" font-weight="600" fill="#0369a1" text-anchor="middle">wirkt auf</text>

    <!-- Supporting Evidence -->
    <rect x="80" y="270" width="300" height="60" rx="8" fill="#ffffff" stroke="#bae6fd" stroke-width="2"/>
    <rect x="90" y="285" width="4" height="30" rx="2" fill="#0ea5e9"/>
    <text x="110" y="295" font-family="Inter, Arial, sans-serif" font-size="12" font-weight="700" fill="#0f172a">Kernbeleg</text>
    <text x="110" y="315" font-family="Inter, Arial, sans-serif" font-size="12" font-weight="400" fill="#475569">Präziser Auszug für Konzept A</text>

    <!-- Clean paths to outcome -->
    <path d="M 140 210 Q 140 370 200 450" fill="none" stroke="#0284c7" stroke-width="3"/>
    <path d="M 320 210 Q 320 370 260 450" fill="none" stroke="#0284c7" stroke-width="3"/>
    <path d="M 230 330 L 230 450" fill="none" stroke="#0284c7" stroke-width="3" marker-end="url(#arrow)"/>

    <rect x="130" y="450" width="200" height="50" rx="12" fill="url(#sky-gradient)"/>
    <text x="230" y="480" font-family="Inter, Arial, sans-serif" font-size="16" font-weight="700" fill="#ffffff" text-anchor="middle">Stabile Antwort</text>
  </g>
</svg>
