<svg width="1400" height="860" viewBox="0 0 1400 860" fill="none" xmlns="http://www.w3.org/2000/svg">
  <defs>
    <filter id="glass" x="-10%" y="-10%" width="120%" height="120%">
      <feGaussianBlur stdDeviation="12" result="blur" />
      <feColorMatrix type="matrix" values="1 0 0 0 0  0 1 0 0 0  0 0 1 0 0  0 0 0 18 -7" result="glow" />
      <feBlend in="SourceGraphic" in2="glow" />
    </filter>
    <linearGradient id="sky-gradient" x1="0%" y1="0%" x2="100%" y2="100%">
      <stop offset="0%" stop-color="#0284c7" />
      <stop offset="100%" stop-color="#0369a1" />
    </linearGradient>
    <linearGradient id="panel-gradient" x1="0%" y1="0%" x2="100%" y2="100%">
      <stop offset="0%" stop-color="#ffffff" stop-opacity="0.9" />
      <stop offset="100%" stop-color="#f8fafc" stop-opacity="0.8" />
    </linearGradient>
  </defs>

  <rect width="1400" height="860" fill="#f8fafc"/>

  <text x="80" y="90" font-family="Inter, Arial, sans-serif" font-size="42" font-weight="800" fill="#0f172a" letter-spacing="-0.02em">Drei Ebenen eines Entscheidungs-Interfaces</text>
  <text x="80" y="132" font-family="Inter, Arial, sans-serif" font-size="24" font-weight="500" fill="#475569">GraphRAG verbindet Kontext, Ableitung und Diskussion in einer Struktur.</text>

  <!-- Level 1: Kontext-Ebene -->
  <g transform="translate(100, 200)">
    <rect width="360" height="540" rx="24" fill="url(#panel-gradient)" stroke="#e2e8f0" stroke-width="2" filter="url(#glass)"/>
    <rect x="32" y="32" width="48" height="48" rx="12" fill="#e0f2fe" />
    <text x="56" y="63" font-family="Inter, Arial, sans-serif" font-size="20" font-weight="700" fill="#0284c7" text-anchor="middle">1</text>
    <text x="100" y="63" font-family="Inter, Arial, sans-serif" font-size="24" font-weight="700" fill="#0f172a">Kontext-Ebene</text>
    <text x="32" y="110" font-family="Inter, Arial, sans-serif" font-size="16" font-weight="500" fill="#64748b">Fokus: Basisdaten &amp; Belege</text>

    <!-- Documents / Data -->
    <rect x="40" y="160" width="280" height="70" rx="12" fill="#f1f5f9" stroke="#cbd5e1" stroke-dasharray="4 4"/>
    <text x="180" y="193" text-anchor="middle" font-family="Inter, Arial, sans-serif" font-size="14" fill="#475569" font-weight="600">Unstrukturierte Dokumente</text>
    <text x="180" y="215" text-anchor="middle" font-family="Inter, Arial, sans-serif" font-size="12" fill="#64748b">Verträge, Policies, Mails</text>

    <!-- DBs -->
    <rect x="40" y="250" width="280" height="70" rx="12" fill="#f1f5f9" stroke="#cbd5e1" stroke-dasharray="4 4"/>
    <text x="180" y="283" text-anchor="middle" font-family="Inter, Arial, sans-serif" font-size="14" fill="#475569" font-weight="600">Strukturierte Systeme</text>
    <text x="180" y="305" text-anchor="middle" font-family="Inter, Arial, sans-serif" font-size="12" fill="#64748b">Jira, ERP, CMDB</text>

    <line x1="180" y1="360" x2="180" y2="420" stroke="#0ea5e9" stroke-width="3" stroke-dasharray="4 4"/>
    
    <rect x="40" y="440" width="280" height="60" rx="12" fill="#0284c7" />
    <text x="180" y="475" text-anchor="middle" font-family="Inter, Arial, sans-serif" font-size="16" font-weight="600" fill="#ffffff">Extraktion &amp; Vektorisierung</text>
  </g>

  <!-- Level 2: Ableitungs-Ebene -->
  <g transform="translate(520, 200)">
    <rect width="360" height="540" rx="24" fill="url(#panel-gradient)" stroke="#e2e8f0" stroke-width="2" filter="url(#glass)"/>
    <rect x="32" y="32" width="48" height="48" rx="12" fill="#e0f2fe" />
    <text x="56" y="63" font-family="Inter, Arial, sans-serif" font-size="20" font-weight="700" fill="#0284c7" text-anchor="middle">2</text>
    <text x="100" y="63" font-family="Inter, Arial, sans-serif" font-size="24" font-weight="700" fill="#0f172a">Ableitungs-Ebene</text>
    <text x="32" y="110" font-family="Inter, Arial, sans-serif" font-size="16" font-weight="500" fill="#64748b">Fokus: Begriffe &amp; Beziehungen</text>

    <!-- Graph visualization -->
    <circle cx="180" cy="240" r="100" fill="#f8fafc" stroke="#e2e8f0" stroke-dasharray="8 4" stroke-width="2"/>
    
    <circle cx="180" cy="180" r="30" fill="#e0f2fe" stroke="#38bdf8" stroke-width="2"/>
    <text x="180" y="185" text-anchor="middle" font-family="Inter, Arial, sans-serif" font-size="14" font-weight="600" fill="#0284c7">A</text>

    <circle cx="120" cy="280" r="30" fill="#e0f2fe" stroke="#38bdf8" stroke-width="2"/>
    <text x="120" y="285" text-anchor="middle" font-family="Inter, Arial, sans-serif" font-size="14" font-weight="600" fill="#0284c7">B</text>

    <circle cx="240" cy="280" r="30" fill="#e0f2fe" stroke="#38bdf8" stroke-width="2"/>
    <text x="240" y="285" text-anchor="middle" font-family="Inter, Arial, sans-serif" font-size="14" font-weight="600" fill="#0284c7">C</text>

    <line x1="160" y1="205" x2="135" y2="255" stroke="#0ea5e9" stroke-width="2"/>
    <line x1="200" y1="205" x2="225" y2="255" stroke="#0ea5e9" stroke-width="2"/>
    <path d="M 145 295 Q 180 320 215 295" fill="none" stroke="#0ea5e9" stroke-width="2" stroke-dasharray="4 2"/>

    <line x1="180" y1="360" x2="180" y2="420" stroke="#0ea5e9" stroke-width="3" stroke-dasharray="4 4"/>
    
    <rect x="40" y="440" width="280" height="60" rx="12" fill="#0284c7" />
    <text x="180" y="475" text-anchor="middle" font-family="Inter, Arial, sans-serif" font-size="16" font-weight="600" fill="#ffffff">Graph-Modellierung</text>
  </g>

  <!-- Level 3: Diskussions-Ebene -->
  <g transform="translate(940, 200)">
    <rect width="360" height="540" rx="24" fill="#ffffff" stroke="#0ea5e9" stroke-width="2" filter="url(#glass)"/>
    <rect x="32" y="32" width="48" height="48" rx="12" fill="#0284c7" />
    <text x="56" y="63" font-family="Inter, Arial, sans-serif" font-size="20" font-weight="700" fill="#ffffff" text-anchor="middle">3</text>
    <text x="100" y="63" font-family="Inter, Arial, sans-serif" font-size="24" font-weight="700" fill="#0f172a">Diskussions-Ebene</text>
    <text x="32" y="110" font-family="Inter, Arial, sans-serif" font-size="16" font-weight="500" fill="#0284c7">Fokus: Review &amp; Governance</text>

    <!-- UI Elements -->
    <rect x="40" y="150" width="280" height="180" rx="12" fill="#f8fafc" stroke="#e2e8f0" />
    
    <!-- User Avatar & Prompt -->
    <circle cx="70" cy="180" r="14" fill="#cbd5e1"/>
    <rect x="95" y="172" width="160" height="16" rx="4" fill="#e2e8f0"/>
    
    <!-- AI Response Box -->
    <rect x="60" y="210" width="240" height="100" rx="8" fill="#ffffff" stroke="#e0f2fe" stroke-width="2"/>
    <rect x="75" y="230" width="180" height="8" rx="4" fill="#38bdf8"/>
    <rect x="75" y="250" width="210" height="8" rx="4" fill="#94a3b8" opacity="0.5"/>
    <rect x="75" y="270" width="150" height="8" rx="4" fill="#94a3b8" opacity="0.5"/>
    
    <!-- Evidence Tags -->
    <circle cx="280" cy="274" r="10" fill="#e0f2fe" stroke="#38bdf8"/>
    <text x="280" y="278" font-family="Inter, Arial, sans-serif" font-size="10" font-weight="700" fill="#0284c7" text-anchor="middle">✓</text>

    <line x1="180" y1="360" x2="180" y2="420" stroke="#0ea5e9" stroke-width="3" stroke-dasharray="4 4"/>
    
    <rect x="40" y="440" width="280" height="60" rx="12" fill="url(#sky-gradient)" />
    <text x="180" y="475" text-anchor="middle" font-family="Inter, Arial, sans-serif" font-size="16" font-weight="600" fill="#ffffff">Prüfbare Entscheidung</text>
  </g>

  <!-- Connectors -->
  <line x1="460" y1="470" x2="520" y2="470" stroke="#cbd5e1" stroke-width="4" stroke-dasharray="6 6"/>
  <line x1="880" y1="470" x2="940" y2="470" stroke="#cbd5e1" stroke-width="4" stroke-dasharray="6 6"/>
</svg>
