<svg width="1400" height="860" viewBox="0 0 1400 860" fill="none" xmlns="http://www.w3.org/2000/svg">
  <defs>
    <filter id="glass" x="-10%" y="-10%" width="120%" height="120%">
      <feGaussianBlur stdDeviation="12" result="blur" />
      <feColorMatrix type="matrix" values="1 0 0 0 0  0 1 0 0 0  0 0 1 0 0  0 0 0 18 -7" result="glow" />
      <feBlend in="SourceGraphic" in2="glow" />
    </filter>
    <linearGradient id="sky-gradient" x1="0%" y1="0%" x2="100%" y2="100%">
      <stop offset="0%" stop-color="#0284c7" />
      <stop offset="100%" stop-color="#0369a1" />
    </linearGradient>
    <linearGradient id="panel-gradient" x1="0%" y1="0%" x2="100%" y2="100%">
      <stop offset="0%" stop-color="#ffffff" stop-opacity="0.9" />
      <stop offset="100%" stop-color="#f8fafc" stop-opacity="0.8" />
    </linearGradient>
  </defs>

  <rect width="1400" height="860" fill="#0f172a"/>

  <text x="80" y="90" font-family="Inter, Arial, sans-serif" font-size="42" font-weight="800" fill="#ffffff" letter-spacing="-0.02em">Schichten der Prompt-Transparenz</text>
  <text x="80" y="132" font-family="Inter, Arial, sans-serif" font-size="24" font-weight="500" fill="#94a3b8">Wie der Entscheidungsmechanismus überprüfbar gemacht wird.</text>

  <!-- Base Context Layer -->
  <g transform="translate(100, 520)">
    <rect width="800" height="200" rx="24" fill="#1e293b" stroke="#334155" stroke-width="2" filter="url(#glass)"/>
    <text x="40" y="50" font-family="Inter, Arial, sans-serif" font-size="20" font-weight="700" fill="#e2e8f0">Ebene 3: Das Kontextpaket</text>
    <text x="40" y="80" font-family="Inter, Arial, sans-serif" font-size="14" font-weight="500" fill="#94a3b8">Welche Datenbasis wurde für diesen speziellen Lauf herangezogen?</text>
    
    <rect x="40" y="110" width="160" height="50" rx="8" fill="#0f172a" stroke="#cbd5e1" stroke-width="1" stroke-dasharray="4 4"/>
    <text x="120" y="135" font-family="Inter, Arial, sans-serif" font-size="12" font-weight="600" fill="#94a3b8" text-anchor="middle">Knoten (Begriffe)</text>

    <rect x="220" y="110" width="160" height="50" rx="8" fill="#0f172a" stroke="#cbd5e1" stroke-width="1" stroke-dasharray="4 4"/>
    <text x="300" y="135" font-family="Inter, Arial, sans-serif" font-size="12" font-weight="600" fill="#94a3b8" text-anchor="middle">Kanten (Beziehungen)</text>

    <rect x="400" y="110" width="160" height="50" rx="8" fill="#0f172a" stroke="#0ea5e9" stroke-width="1"/>
    <text x="480" y="135" font-family="Inter, Arial, sans-serif" font-size="12" font-weight="600" fill="#38bdf8" text-anchor="middle">Aktive Belege</text>

    <rect x="580" y="110" width="160" height="50" rx="8" fill="#0f172a" stroke="#cbd5e1" stroke-width="1" stroke-dasharray="4 4"/>
    <text x="660" y="135" font-family="Inter, Arial, sans-serif" font-size="12" font-weight="600" fill="#94a3b8" text-anchor="middle">Ausschlussliste</text>
  </g>

  <!-- Constraints Layer -->
  <g transform="translate(140, 360)">
    <rect width="720" height="180" rx="24" fill="#1e293b" stroke="#334155" stroke-width="2" filter="url(#glass)"/>
    <text x="40" y="50" font-family="Inter, Arial, sans-serif" font-size="20" font-weight="700" fill="#e2e8f0">Ebene 2: Antwort-Constraints</text>
    <text x="40" y="80" font-family="Inter, Arial, sans-serif" font-size="14" font-weight="500" fill="#94a3b8">Welche Struktur- und Formatvorgaben wurden erzwungen?</text>

    <rect x="40" y="110" width="140" height="30" rx="6" fill="#0f172a" stroke="#38bdf8" stroke-width="1"/>
    <text x="110" y="130" font-family="Inter, Arial, sans-serif" font-size="12" font-weight="500" fill="#e0f2fe" text-anchor="middle">JSON Schema</text>

    <rect x="200" y="110" width="140" height="30" rx="6" fill="#0f172a" stroke="#38bdf8" stroke-width="1"/>
    <text x="270" y="130" font-family="Inter, Arial, sans-serif" font-size="12" font-weight="500" fill="#e0f2fe" text-anchor="middle">Referenz-Zwang</text>

    <rect x="360" y="110" width="140" height="30" rx="6" fill="#0f172a" stroke="#475569" stroke-width="1"/>
    <text x="430" y="130" font-family="Inter, Arial, sans-serif" font-size="12" font-weight="500" fill="#94a3b8" text-anchor="middle">Max. Länge: 400</text>
  </g>

  <!-- Role Layer -->
  <g transform="translate(180, 200)">
    <rect width="640" height="180" rx="24" fill="#0369a1" stroke="#38bdf8" stroke-width="2" filter="url(#glass)"/>
    <text x="40" y="50" font-family="Inter, Arial, sans-serif" font-size="20" font-weight="700" fill="#ffffff">Ebene 1: System-Rolle</text>
    <text x="40" y="80" font-family="Inter, Arial, sans-serif" font-size="14" font-weight="500" fill="#e0f2fe">Welche epistemische Haltung nimmt das Modell ein?</text>

    <rect x="40" y="110" width="260" height="40" rx="8" fill="#0284c7" stroke="#7dd3fc" stroke-width="1"/>
    <text x="170" y="135" font-family="Inter, Arial, sans-serif" font-size="14" font-weight="600" fill="#ffffff" text-anchor="middle">"Entscheidungsvorbereiter"</text>

    <rect x="320" y="110" width="220" height="40" rx="8" fill="#0284c7" stroke="#7dd3fc" stroke-width="1"/>
    <text x="430" y="135" font-family="Inter, Arial, sans-serif" font-size="14" font-weight="600" fill="#ffffff" text-anchor="middle">Fokus: Risiko &amp; Trade-offs</text>
  </g>

  <!-- Right side: The Output -->
  <g transform="translate(960, 200)">
    <rect width="360" height="520" rx="24" fill="url(#panel-gradient)" filter="url(#glass)"/>
    <text x="180" y="50" font-family="Inter, Arial, sans-serif" font-size="20" font-weight="700" fill="#0f172a" text-anchor="middle">Ergebnis</text>
    
    <rect x="40" y="80" width="280" height="60" rx="8" fill="#f1f5f9" stroke="#cbd5e1" stroke-width="1"/>
    <circle cx="60" cy="110" r="8" fill="#10b981"/>
    <text x="85" y="115" font-family="Inter, Arial, sans-serif" font-size="14" font-weight="600" fill="#0f172a">Versionierte Herleitung</text>

    <rect x="40" y="160" width="280" height="60" rx="8" fill="#f1f5f9" stroke="#cbd5e1" stroke-width="1"/>
    <circle cx="60" cy="190" r="8" fill="#10b981"/>
    <text x="85" y="195" font-family="Inter, Arial, sans-serif" font-size="14" font-weight="600" fill="#0f172a">Verifizierte Belege</text>

    <rect x="40" y="240" width="280" height="60" rx="8" fill="#f1f5f9" stroke="#cbd5e1" stroke-width="1"/>
    <circle cx="60" cy="270" r="8" fill="#10b981"/>
    <text x="85" y="275" font-family="Inter, Arial, sans-serif" font-size="14" font-weight="600" fill="#0f172a">Auditierbarer Kontext</text>
    
    <path d="M 180 340 L 180 400" stroke="#0ea5e9" stroke-width="4" marker-end="url(#arrow)"/>
    
    <rect x="60" y="420" width="240" height="50" rx="12" fill="url(#sky-gradient)"/>
    <text x="180" y="450" font-family="Inter, Arial, sans-serif" font-size="16" font-weight="700" fill="#ffffff" text-anchor="middle">Fundiertes Review</text>
  </g>

  <!-- Connectors from layers to output -->
  <path d="M 820 290 Q 890 290 890 350 T 960 410" fill="none" stroke="#e2e8f0" stroke-width="4" stroke-dasharray="8 8"/>
  <path d="M 860 450 Q 890 450 890 450 T 960 450" fill="none" stroke="#e2e8f0" stroke-width="4" stroke-dasharray="8 8"/>
  <path d="M 900 620 Q 930 620 930 550 T 960 490" fill="none" stroke="#e2e8f0" stroke-width="4" stroke-dasharray="8 8"/>
</svg>
